<svg xmlns="http://www.w3.org/2000/svg" width="200" height="28"><path fill="#f15d22" d="M0 0h76v28H0V0"/><path fill="#e6e7e6" d="M76 0h124v28H76V0"/><path fill="#18457b" d="M83.22 19.44l1.45-.88q1.58 2.88 3.63 2.88A3.44 3.44 0 0090 21a2.94 2.94 0 001.58-2.59 3.07 3.07 0 00-.59-1.75A13.71 13.71 0 0088 13.91a15.24 15.24 0 01-2.68-2.35 4.29 4.29 0 01-.91-2.64 4.09 4.09 0 01.53-2.05 3.8 3.8 0 011.49-1.46 4.3 4.3 0 012.09-.53 4.49 4.49 0 012.24.59A7.86 7.86 0 0193 7.65l-1.4 1.07A6.64 6.64 0 0089.92 7a2.8 2.8 0 00-1.49-.42 2.33 2.33 0 00-1.7.64 2.14 2.14 0 00-.66 1.59 2.63 2.63 0 00.24 1.1 3.92 3.92 0 00.84 1.17c.22.22 1 .81 2.2 1.75a12.71 12.71 0 013 3 4.88 4.88 0 01.82 2.63 4.5 4.5 0 01-1.41 3.3 4.69 4.69 0 01-3.42 1.4 4.9 4.9 0 01-2.82-.85 7.62 7.62 0 01-2.33-2.83M112.45 8.4l-1.35 1a7.18 7.18 0 00-2.64-2.15 7.79 7.79 0 00-3.39-.73 7.28 7.28 0 00-3.74 1 7.06 7.06 0 00-2.66 2.68 7.48 7.48 0 00-.95 3.78 7.23 7.23 0 007.45 7.42 7.39 7.39 0 005.93-2.88l1.35 1a8.41 8.41 0 01-3.13 2.61 9.44 9.44 0 01-4.19.92 8.58 8.58 0 01-6.94-3 9.37 9.37 0 01-2.14-6.19 8.87 8.87 0 019.06-9 9.63 9.63 0 014.24.92 8.17 8.17 0 013.1 2.6M116.02 5.36h1.66v7.2h8.56v-7.2h1.66v17.28h-1.66v-8.4h-8.56v8.4h-1.66V5.36M140.34 6.56a7 7 0 00-3.6 1 7.35 7.35 0 00-2.66 2.71 7.74 7.74 0 00-.95 3.8 7.13 7.13 0 002.11 5.23 6.9 6.9 0 005.1 2.14 7.28 7.28 0 003.69-1 7 7 0 002.64-2.69 7.53 7.53 0 001-3.78 7.42 7.42 0 00-1-3.75A7.23 7.23 0 00144 7.56a7.15 7.15 0 00-3.66-1m-.07-1.68a8.68 8.68 0 016.43 2.63 8.88 8.88 0 012.59 6.49 8.94 8.94 0 01-2.58 6.47 8.49 8.49 0 01-6.3 2.66 8.57 8.57 0 01-6.36-2.64 8.86 8.86 0 01-2.59-6.4 9.5 9.5 0 011.18-4.64 8.72 8.72 0 013.22-3.35 8.46 8.46 0 014.41-1.22zM161 6.56a6.94 6.94 0 00-3.6 1 7.28 7.28 0 00-2.66 2.71 7.64 7.64 0 00-1 3.8 7.14 7.14 0 002.12 5.23 6.9 6.9 0 005.1 2.14 7.24 7.24 0 003.68-1 7 7 0 002.65-2.69A7.63 7.63 0 00168.3 14a7.52 7.52 0 00-.95-3.75 7.23 7.23 0 00-2.67-2.68 7.15 7.15 0 00-3.66-1m-.08-1.68a8.69 8.69 0 016.44 2.63A8.92 8.92 0 01170 14a8.94 8.94 0 01-2.58 6.47 8.87 8.87 0 01-12.65 0 8.81 8.81 0 01-2.59-6.4 9.39 9.39 0 011.18-4.64 8.77 8.77 0 013.21-3.35 8.46 8.46 0 014.37-1.2zM173.53 5.36h1.66v15.6h6.42v1.68h-8.08V5.36M182.8 19.44l1.45-.88q1.58 2.88 3.63 2.88a3.37 3.37 0 001.65-.42 2.88 2.88 0 001.18-1.11 2.92 2.92 0 00.41-1.48 3.07 3.07 0 00-.59-1.75 14 14 0 00-2.95-2.77 14.85 14.85 0 01-2.68-2.35 4.29 4.29 0 01-.91-2.64 4.09 4.09 0 01.52-2.05 3.83 3.83 0 011.5-1.46 4.27 4.27 0 012.09-.53 4.52 4.52 0 012.24.59 7.84 7.84 0 012.2 2.18l-1.39 1.07A7 7 0 00189.5 7a2.82 2.82 0 00-1.49-.42 2.32 2.32 0 00-1.7.64 2.14 2.14 0 00-.66 1.59 2.78 2.78 0 00.23 1.1 4.16 4.16 0 00.85 1.17c.22.22.95.81 2.19 1.75a12.6 12.6 0 013 3 5 5 0 01.82 2.63 4.5 4.5 0 01-1.41 3.3 4.69 4.69 0 01-3.43 1.4 4.9 4.9 0 01-2.81-.85 7.53 7.53 0 01-2.33-2.83"/><path fill="#fff" d="M8.3 22.96H4.9l7.59-17.88h3.57l7.74 17.88h-3.56l-2.04-4.88h-5.93l1.13-2.87H17L14.19 8.5 8.3 22.96M25.92 23V5.08h8q5.47 0 5.48 5 0 5.46-7.49 6.62l-.47-3c3-.54 4.5-1.72 4.5-3.56A2 2 0 0033.71 8h-4.47v15h-3.32M53.78 5.08v2.86h-8.95v4.5h8.52v2.96h-8.56v4.68h9.16v2.88H41.54V5.08h12.24M71.15 22.21a14.82 14.82 0 01-5.25.87q-9.63 0-9.62-9.31 0-8.81 9.62-8.81a14.6 14.6 0 015.25.88v3a12.4 12.4 0 00-5-1q-6.43 0-6.44 5.93 0 6.43 6.44 6.44a12.58 12.58 0 005-1v3"/></svg>