<svg xmlns="http://www.w3.org/2000/svg" width="120.75" height="80"><path fill="#f15d22" d="M0 0h120.75v51.32H0V0"/><path fill="#e6e7e6" d="M0 51.02h120.75V80H0V51.02"/><path fill="#18457b" d="M9.03 71.22l1.35-.82c1 1.8 2.14 2.7 3.45 2.7a3.32 3.32 0 001.55-.35 2.75 2.75 0 001.11-1 2.68 2.68 0 00.39-1.39 2.85 2.85 0 00-.5-1.73 13 13 0 00-2.8-2.6 14 14 0 01-2.54-2.21 4 4 0 01-.87-2.48 3.73 3.73 0 01.51-1.92 3.51 3.51 0 011.41-1.37 4 4 0 012-.5 4.28 4.28 0 012.13.55 7.49 7.49 0 012.09 2.05l-1.32 1a6.45 6.45 0 00-1.61-1.63 2.67 2.67 0 00-1.41-.39 2.21 2.21 0 00-1.59.62 2 2 0 00-.63 1.49 2.73 2.73 0 00.22 1 4.05 4.05 0 00.8 1.09c.21.21.91.76 2.09 1.65a11.74 11.74 0 012.87 2.8 4.54 4.54 0 01.78 2.46 4.19 4.19 0 01-1.33 3.1 4.46 4.46 0 01-3.25 1.32 4.73 4.73 0 01-2.67-.8 7.07 7.07 0 01-2.23-2.64z"/><path fill="none" stroke="#18457b" stroke-linejoin="round" stroke-width=".38" d="M9.03 71.22l1.35-.82c1 1.8 2.14 2.7 3.45 2.7a3.32 3.32 0 001.55-.35 2.75 2.75 0 001.11-1 2.68 2.68 0 00.39-1.39 2.85 2.85 0 00-.5-1.73 13 13 0 00-2.8-2.6 14 14 0 01-2.54-2.21 4 4 0 01-.87-2.48 3.73 3.73 0 01.51-1.92 3.51 3.51 0 011.41-1.37 4 4 0 012-.5 4.28 4.28 0 012.13.55 7.49 7.49 0 012.09 2.05l-1.32 1a6.45 6.45 0 00-1.61-1.63 2.67 2.67 0 00-1.41-.39 2.21 2.21 0 00-1.59.62 2 2 0 00-.63 1.49 2.73 2.73 0 00.22 1 4.05 4.05 0 00.8 1.09c.21.21.91.76 2.09 1.65a11.74 11.74 0 012.87 2.8 4.54 4.54 0 01.78 2.46 4.19 4.19 0 01-1.33 3.1 4.46 4.46 0 01-3.25 1.32 4.73 4.73 0 01-2.67-.8 7.07 7.07 0 01-2.23-2.64z"/><path fill="#18457b" d="M36.75 60.85l-1.28 1a6.79 6.79 0 00-2.51-2 7.39 7.39 0 00-3.21-.68 7 7 0 00-3.55.93 6.7 6.7 0 00-2.52 2.52 7 7 0 00-.9 3.55 6.76 6.76 0 002 5 6.9 6.9 0 005.07 2 7 7 0 005.62-2.7l1.28 1a7.93 7.93 0 01-3 2.45 8.9 8.9 0 01-4 .87 8.17 8.17 0 01-6.59-2.85 8.71 8.71 0 01-2-5.81 8.2 8.2 0 012.45-6 8.33 8.33 0 016.14-2.44 9.12 9.12 0 014 .87 7.67 7.67 0 013 2.29z"/><path fill="none" stroke="#18457b" stroke-linejoin="round" stroke-width=".38" d="M36.75 60.85l-1.28 1a6.79 6.79 0 00-2.51-2 7.39 7.39 0 00-3.21-.68 7 7 0 00-3.55.93 6.7 6.7 0 00-2.52 2.52 7 7 0 00-.9 3.55 6.76 6.76 0 002 5 6.9 6.9 0 005.07 2 7 7 0 005.62-2.7l1.28 1a7.93 7.93 0 01-3 2.45 8.9 8.9 0 01-4 .87 8.17 8.17 0 01-6.59-2.85 8.71 8.71 0 01-2-5.81 8.2 8.2 0 012.45-6 8.33 8.33 0 016.14-2.44 9.12 9.12 0 014 .87 7.67 7.67 0 013 2.29z"/><path fill="#18457b" d="M40.13 58h1.58v6.76h8.11V58h1.58v16.23h-1.58v-7.89h-8.11v7.89h-1.58V58z"/><path fill="none" stroke="#18457b" stroke-linejoin="round" stroke-width=".38" d="M40.13 58h1.58v6.76h8.11V58h1.58v16.23h-1.58v-7.89h-8.11v7.89h-1.58V58z"/><path fill="#18457b" d="M63.21 59.13a6.65 6.65 0 00-3.42.94 6.75 6.75 0 00-2.52 2.54 7.08 7.08 0 00-.89 3.57 6.86 6.86 0 006.85 6.92 7 7 0 003.49-.92 6.67 6.67 0 002.51-2.52 7.14 7.14 0 00.9-3.56 6.92 6.92 0 00-.9-3.51 7 7 0 00-6-3.46zm-.07-1.58a8.25 8.25 0 016.1 2.47 8.77 8.77 0 010 12.16 8 8 0 01-6 2.5 8.42 8.42 0 01-8.48-8.5 8.85 8.85 0 011.11-4.35 8.32 8.32 0 013-3.15 8.21 8.21 0 014.27-1.13z"/><path fill="none" stroke="#18457b" stroke-linejoin="round" stroke-width=".38" d="M63.21 59.13a6.65 6.65 0 00-3.42.94 6.75 6.75 0 00-2.52 2.54 7.08 7.08 0 00-.89 3.57 6.86 6.86 0 006.85 6.92 7 7 0 003.49-.92 6.67 6.67 0 002.51-2.52 7.14 7.14 0 00.9-3.56 6.92 6.92 0 00-.9-3.51 7 7 0 00-6-3.46zm-.07-1.58a8.25 8.25 0 016.1 2.47 8.77 8.77 0 010 12.16 8 8 0 01-6 2.5 8.42 8.42 0 01-8.48-8.5 8.85 8.85 0 011.11-4.35 8.32 8.32 0 013-3.15 8.21 8.21 0 014.27-1.13z"/><path fill="#18457b" d="M82.82 59.13a6.65 6.65 0 00-3.42.94 6.82 6.82 0 00-2.52 2.54 7.18 7.18 0 00-.91 3.57 6.86 6.86 0 006.85 6.92 6.92 6.92 0 003.49-.92 6.67 6.67 0 002.51-2.52 7.14 7.14 0 00.9-3.56 6.92 6.92 0 00-.9-3.51 6.73 6.73 0 00-2.53-2.52 6.83 6.83 0 00-3.47-.94zm-.07-1.58a8.25 8.25 0 016.1 2.47 8.77 8.77 0 010 12.16 8 8 0 01-6 2.5 8.42 8.42 0 01-8.48-8.5 8.85 8.85 0 011.11-4.35 8.32 8.32 0 013.05-3.15 8.21 8.21 0 014.22-1.13z"/><path fill="none" stroke="#18457b" stroke-linejoin="round" stroke-width=".38" d="M82.82 59.13a6.65 6.65 0 00-3.42.94 6.82 6.82 0 00-2.52 2.54 7.18 7.18 0 00-.91 3.57 6.86 6.86 0 006.85 6.92 6.92 6.92 0 003.49-.92 6.67 6.67 0 002.51-2.52 7.14 7.14 0 00.9-3.56 6.92 6.92 0 00-.9-3.51 6.73 6.73 0 00-2.53-2.52 6.83 6.83 0 00-3.47-.94zm-.07-1.58a8.25 8.25 0 016.1 2.47 8.77 8.77 0 010 12.16 8 8 0 01-6 2.5 8.42 8.42 0 01-8.48-8.5 8.85 8.85 0 011.11-4.35 8.32 8.32 0 013.05-3.15 8.21 8.21 0 014.22-1.13z"/><path fill="#18457b" d="M94.68 58h1.58v14.65h6.08v1.58h-7.66V58z"/><path fill="none" stroke="#18457b" stroke-linejoin="round" stroke-width=".38" d="M94.68 58h1.58v14.65h6.08v1.58h-7.66V58z"/><path fill="#18457b" d="M103.47 71.22l1.38-.82q1.49 2.7 3.44 2.7a3.29 3.29 0 001.57-.39 2.74 2.74 0 001.5-2.44 2.83 2.83 0 00-.55-1.64 13.28 13.28 0 00-2.8-2.6 14 14 0 01-2.54-2.21 4 4 0 01-.87-2.48 3.82 3.82 0 01.5-1.92 3.6 3.6 0 011.42-1.37 4 4 0 012-.5 4.22 4.22 0 012.12.55 7.5 7.5 0 012.1 2.05l-1.33 1a6.45 6.45 0 00-1.56-1.63 2.71 2.71 0 00-1.42-.39 2.25 2.25 0 00-1.61.6 2 2 0 00-.62 1.49 2.56 2.56 0 00.22 1 3.84 3.84 0 00.8 1.09c.21.21.91.76 2.08 1.65a11.82 11.82 0 012.88 2.8 4.54 4.54 0 01.78 2.46 4.17 4.17 0 01-1.34 3.1 4.44 4.44 0 01-3.24 1.32 4.74 4.74 0 01-2.68-.8 7.16 7.16 0 01-2.23-2.62z"/><path fill="none" stroke="#18457b" stroke-linejoin="round" stroke-width=".38" d="M103.47 71.22l1.38-.82q1.49 2.7 3.44 2.7a3.29 3.29 0 001.57-.39 2.74 2.74 0 001.5-2.44 2.83 2.83 0 00-.55-1.64 13.28 13.28 0 00-2.8-2.6 14 14 0 01-2.54-2.21 4 4 0 01-.87-2.48 3.82 3.82 0 01.5-1.92 3.6 3.6 0 011.42-1.37 4 4 0 012-.5 4.22 4.22 0 012.12.55 7.5 7.5 0 012.1 2.05l-1.33 1a6.45 6.45 0 00-1.56-1.63 2.71 2.71 0 00-1.42-.39 2.25 2.25 0 00-1.61.6 2 2 0 00-.62 1.49 2.56 2.56 0 00.22 1 3.84 3.84 0 00.8 1.09c.21.21.91.76 2.08 1.65a11.82 11.82 0 012.88 2.8 4.54 4.54 0 01.78 2.46 4.17 4.17 0 01-1.34 3.1 4.44 4.44 0 01-3.24 1.32 4.74 4.74 0 01-2.68-.8 7.16 7.16 0 01-2.23-2.62z"/><path fill="#fff" d="M10.28 41.2H4.61l12.65-29.8h5.94l12.91 29.8h-5.93l-3.4-8.13h-9.89l1.89-4.79h6l-4.69-11.19-9.81 24.11M39.65 41.2V11.4h13.33q9.14 0 9.13 8.4 0 9.11-12.48 11l-.79-4.92q7.54-1.33 7.54-5.91c0-2.48-1.24-3.71-3.71-3.71h-7.5V41.2h-5.52M86.07 11.4v4.76H71.15v7.5h14.21v4.93H71.09v7.81h15.27v4.8H65.67V11.4h20.4M115.02 39.94a24.38 24.38 0 01-8.74 1.46q-16.05 0-16-15.52 0-14.68 16-14.68a24.38 24.38 0 018.74 1.46v5a20.76 20.76 0 00-8.33-1.67q-10.73 0-10.73 9.89 0 10.74 10.73 10.73a20.76 20.76 0 008.33-1.67v5"/></svg>