<svg xmlns="http://www.w3.org/2000/svg" height="75" viewBox="0 0 275 57.74"><path fill="#04549a" d="M25 14.14L12.24 21.5v14.73L25 43.6l12.76-7.37V21.5zm10.2 20.62L25 40.65l-10.2-5.89V23L25 17.08 35.2 23zM34.69 5.6L25 0 12.24 7.36v11.2L34.69 5.6zM40.31 22.98V48.9L50 43.3V28.57l-9.69-5.59zM50 25.63v-11.2L37.24 7.07l-9.69 5.6L50 25.63zM9.69 34.76V8.84L0 14.43v14.73l9.69 5.6zM0 32.11V43.3l12.76 7.37 9.69-5.6L0 32.11zM15.31 52.14L25 57.73l12.76-7.36V39.18L15.31 52.14z"/><path fill="#231f20" d="M69.43 22.1c0 .71.06 1.88.07 2.08.06.58.33.63.8.63h.7c.13 0 .13.06.13.13v.42c0 .1 0 .16-.13.16s-.92-.06-2.44-.06-2.18.06-2.38.06-.11-.06-.11-.15v-.43c0-.07 0-.13.13-.13h.88c.47 0 .62-.18.64-.45s0-1.68 0-3.36v-1c-.23-.47-3.23-5.56-3.76-6.19a1.38 1.38 0 00-.94-.44h-.45c-.11 0-.13-.05-.13-.12v-.47c0-.07 0-.11.13-.11s1 .05 2.11.05c1.87 0 2.52-.05 2.7-.05s.12 0 .12.09v.45c0 .09 0 .16-.12.16h-.6c-.54 0-.61.17-.54.6s2.27 4.21 2.82 5.24c.67-1.05 3.19-4.81 3.27-5.13s.16-.71-.6-.71h-.49c-.11 0-.12-.05-.12-.16v-.43c0-.07 0-.11.12-.11s.92.05 2.13.05 1.47-.05 1.63-.05.15 0 .15.11v.43c0 .11 0 .16-.15.16h-.4a1.31 1.31 0 00-.89.4c-.36.34-3.59 5-4.28 6zM80 25.36a3.31 3.31 0 01-2.15-2.42 18.86 18.86 0 01-.29-4.4v-4.29c0-.64-.12-.93-.68-.93h-.85c-.11 0-.13 0-.13-.16v-.4c0-.1 0-.14.16-.14s1.07.05 2.48.05 2.27-.05 2.47-.05.17 0 .17.11v.47c0 .09 0 .12-.15.12h-.9a.82.82 0 00-.87.74v3.55c0 .95.08 3.25.09 3.83a4.38 4.38 0 00.58 2.29A3.37 3.37 0 0082.79 25a3.88 3.88 0 002.71-1 4.53 4.53 0 00.93-3.18V17c0-1.37 0-2.42-.09-2.87a.8.8 0 00-.81-.8h-.79c-.11 0-.13-.05-.13-.14v-.43c0-.09 0-.13.13-.13s1 .05 2.22.05 1.82-.05 2-.05.18.07.18.13v.39c0 .11 0 .18-.11.18h-.74c-.67 0-.73.51-.78.73s0 2.74 0 3 0 3.41-.09 4.11a4.65 4.65 0 01-1.51 3.49 4.85 4.85 0 01-3.4 1.09 6.79 6.79 0 01-2.51-.39zM91.05 24.07A7.26 7.26 0 0189.12 19 6.85 6.85 0 0191 14.23a6.26 6.26 0 014.51-1.83 7.47 7.47 0 013.65 1c.24.14.33.12.37 0l.14-.53c0-.11.07-.11.23-.11s.2 0 .2.29.36 3 .45 3.51c0 .09 0 .16-.07.18l-.27.07c-.09 0-.13 0-.18-.14a6.82 6.82 0 00-1.41-2.24A4.17 4.17 0 0095.44 13c-3.24 0-4.54 2.88-4.52 5.51a7.26 7.26 0 001.74 4.65 4 4 0 003.47 1.52 5.51 5.51 0 004.46-2.3c0-.09.09-.11.14-.05l.24.18s.09.07 0 .16a6.46 6.46 0 01-5.38 3 6.26 6.26 0 01-4.54-1.6zM104.14 18.35V14.5c0-.92-.13-1.18-.8-1.18h-.85c-.09 0-.11 0-.11-.14v-.43c0-.09.06-.13.15-.13.36 0 .94.05 2.53.05 1.41 0 2.06-.05 2.4-.05.13 0 .18 0 .18.09v.47c0 .11 0 .14-.14.14h-.93c-.61 0-.7.31-.7 1v3.96c0 .09.06.14.22.14h6.68c.28 0 .37 0 .37-.27V18c0-1-.06-3.54-.06-3.75 0-.58-.07-.93-.59-.93h-.94c-.09 0-.13 0-.13-.12v-.47c0-.07 0-.11.11-.11.38 0 1.15.05 2.38.05s2-.05 2.32-.05c.12 0 .14 0 .14.14v.44c0 .11 0 .12-.14.12h-.82c-.52 0-.58.31-.58 1v9.61c0 .65.18.9.72.9h.8c.13 0 .16 0 .16.13v.43c0 .11 0 .15-.14.15-.35 0-1-.06-2.28-.06-1.57 0-2.15.06-2.69.06a.12.12 0 01-.11-.13v-.45c0-.09 0-.13.15-.13h1.13c.44 0 .49-.34.49-.83 0-.85.06-3.75.06-4.41v-.25c0-.2-.09-.22-.4-.22h-6.61c-.2 0-.26.06-.26.19v4.91c0 .43.2.61.58.61h.88c.11 0 .15 0 .15.13v.45c0 .09 0 .13-.15.13-.34 0-1-.06-2.27-.06-1.56 0-2.1.06-2.51.06-.1 0-.13 0-.13-.13v-.47c0-.07 0-.11.13-.11h1.06c.45 0 .51-.43.51-.86v-4.83zM121.61 18.54c.14 0 2.07-.07 2.29-.1.52-.09.67-.24.83-.8a4 4 0 00.15-.88.11.11 0 01.12-.13h.45a.11.11 0 01.11.14v2.06c0 .63.07 1.5.11 1.88a.14.14 0 01-.11.15l-.4.05c-.09 0-.13 0-.14-.16s-.15-.65-.2-.85a.86.86 0 00-.78-.71c-.85-.09-2.1-.09-2.38-.09v4.21c0 .94.47 1.3 1 1.41a7.71 7.71 0 001.34.13c.31 0 1.21 0 1.59-.06a3.36 3.36 0 001.57-.63 15.57 15.57 0 001.48-1.9c.06-.09.11-.16.22-.1l.29.16c.09.05.09.11 0 .25l-.95 2.66a.39.39 0 01-.4.27h-9.54c-.11 0-.16 0-.16-.13v-.47c0-.07 0-.09.18-.09h.72c.83 0 .9-.12.9-.79V18v-3.94c-.07-.58-.25-.71-.92-.71h-.65c-.09 0-.15 0-.15-.12v-.49c0-.05 0-.09.13-.09.4 0 1 .05 2.22.05H127.42a.13.13 0 01.14.09l.92 2.91c0 .07 0 .12-.05.16l-.27.15a.12.12 0 01-.15-.06 14.72 14.72 0 00-1.81-2.06 2.79 2.79 0 00-1.37-.49l-3.21-.07zM131.75 15c0-1.06-.54-1.66-1.19-1.68h-.74a.11.11 0 01-.11-.12v-.47c0-.07 0-.11.11-.11h3a.61.61 0 01.52.23l3.8 4.92c.2.25 3.25 4 3.68 4.57h.08v-2.13c0-1.61 0-2.5-.06-3.4a23.51 23.51 0 00-.21-2.78 1 1 0 00-1-.71h-.58c-.07 0-.11 0-.11-.12v-.47a.1.1 0 01.11-.11c.26 0 .83.05 2 .05s1.52-.05 1.75-.05.15.05.15.13v.45a.11.11 0 01-.11.12h-.49c-.49 0-.67.31-.7 1-.08 1.21-.08 3-.08 4.17v6.76c0 .25 0 .43-.09.43s-.38-.22-.43-.29l-2.2-2.78c-1.27-1.57-2.59-3.23-2.7-3.34s-3.52-4.36-3.63-4.5h-.1v4c0 1.68.14 4.62.17 5 .08.7.19 1 .67 1h.55c.12 0 .14.06.14.17v.39c0 .11 0 .15-.14.15s-1.27-.06-1.76-.06-1.62.06-1.8.06-.09 0-.09-.13v-.47a.1.1 0 01.1-.11h.62c.52 0 .72-.21.81-1.1 0-.34.07-2.4.07-5.62zM154.75 21.47c0-.65-.2-.83-.74-.83h-.76c-.09 0-.13 0-.13-.11v-.45c0-.11 0-.14.11-.14h4.43c.26 0 .14 0 .14.12v.44c0 .07 0 .14-.13.14H157c-.33 0-.56.13-.56.69v2.38c0 .25.07.44.07.58s-.11.22-.29.29a10.2 10.2 0 01-4.93 1.16 7 7 0 01-5.06-2.06 7.05 7.05 0 01-1.66-5 6.26 6.26 0 012-4.59 7.44 7.44 0 015.08-1.72 6.42 6.42 0 013.56 1c.2.16.3.13.41 0l.27-.32c.08-.08.15-.17.26-.17s.16.09.16.22l.05 3.45c0 .09 0 .16-.09.16h-.32a.16.16 0 01-.15-.14 6 6 0 00-1.08-2.14 4.25 4.25 0 00-3.29-1.48 4.35 4.35 0 00-3.43 1.57 6.05 6.05 0 00-1.59 4.15 7 7 0 001.72 5.06A4.47 4.47 0 00151.3 25a5.81 5.81 0 003-.61c.41-.25.49-.65.49-1.59zM161.25 24.07a7.27 7.27 0 01-1.94-5.07 6.86 6.86 0 011.85-4.78 6.26 6.26 0 014.51-1.83 7.47 7.47 0 013.65 1c.24.14.33.12.36 0l.15-.53c0-.11.07-.11.23-.11s.2 0 .2.29.36 3 .45 3.51c0 .09 0 .16-.07.18l-.27.07c-.09 0-.13 0-.18-.14a6.82 6.82 0 00-1.41-2.24 4.19 4.19 0 00-3.14-1.4c-3.24 0-4.54 2.88-4.52 5.51a7.3 7.3 0 001.73 4.65 4 4 0 003.47 1.52 5.54 5.54 0 004.47-2.3c.05-.09.09-.11.14-.05l.24.18c.05 0 .08.07 0 .16a6.48 6.48 0 01-5.38 3 6.26 6.26 0 01-4.54-1.62zM175.08 24.56a6.33 6.33 0 01-2.66-5.36 7 7 0 011.68-4.5 5.9 5.9 0 014.9-2.3 6.11 6.11 0 014.05 1.43 7 7 0 012.47 5.4 6.6 6.6 0 01-1.35 4 6.15 6.15 0 01-5.17 2.51 7.9 7.9 0 01-3.92-1.18zm8.67-5.18c0-4-2.82-6.29-4.82-6.29a3.48 3.48 0 00-2.86 1.06 6.46 6.46 0 00-1.8 4.47c0 4.75 3.3 6.43 4.84 6.43 3.97 0 4.64-4.05 4.64-5.67zM202.05 21.47c0-.65-.2-.83-.74-.83h-.76c-.09 0-.13 0-.13-.11v-.45c0-.11 0-.14.11-.14h4.43c.26 0 .14 0 .14.12v.44c0 .07 0 .14-.13.14h-.7c-.33 0-.56.13-.56.69v2.38c0 .25.07.44.07.58s-.11.22-.29.29a10.2 10.2 0 01-4.93 1.16 7 7 0 01-5.06-2.06 7.05 7.05 0 01-1.66-5 6.22 6.22 0 012-4.59A7.44 7.44 0 01199 12.4a6.42 6.42 0 013.56 1c.19.16.3.13.41 0l.27-.32a.38.38 0 01.26-.17c.12 0 .16.09.16.22v3.45c0 .09 0 .16-.09.16h-.32c-.08 0-.13 0-.15-.14a6 6 0 00-1.1-2.07 4.25 4.25 0 00-3.29-1.48 4.33 4.33 0 00-3.45 1.47 6.05 6.05 0 00-1.59 4.15 7 7 0 001.72 5.06A4.47 4.47 0 00198.6 25a5.81 5.81 0 003-.61c.41-.25.49-.65.49-1.59zM208.26 17.24v-3c0-.51-.24-.91-.69-.91h-.72c-.09 0-.11-.05-.11-.12v-.45c0-.09 0-.13.11-.13s.72.05 2.24.05c1 0 2.69-.05 3-.05a4.9 4.9 0 013.37 1.1 3 3 0 01.94 2.06c0 2.26-1 3.11-3.34 3.61a1.75 1.75 0 01.83.69c.22.23 1.5 2.07 1.65 2.31a14.43 14.43 0 001.59 2.08 2.08 2.08 0 001.3.3c.12 0 .14.08.14.15v.4c0 .1 0 .16-.14.16s-.62-.06-1.41-.06c-.52 0-1.19 0-1.46.06a8.84 8.84 0 01-.76-1c-.15-.22-1.12-1.93-1.21-2.08s-.94-1.43-1.16-1.68a2.26 2.26 0 00-2-1.05 2.4 2.4 0 00-.6.06V24.1c0 .27.18.7.45.7h1.14c.12 0 .14.06.14.15v.4c0 .12 0 .16-.2.16s-.65-.06-2.36-.06-2.06.06-2.26.06-.15-.06-.15-.15V25c0-.09 0-.15.09-.15h.75c.39 0 .7-.12.7-.61v-5.2zm1.62 1.76a3.39 3.39 0 00.82.07c3.28 0 3.92-2.25 3.92-3a2.73 2.73 0 00-.91-2.06 4.34 4.34 0 00-3-.83 1.12 1.12 0 00-.61.14.69.69 0 00-.22.58zM221.58 24.56a6.33 6.33 0 01-2.65-5.36 7 7 0 011.68-4.5 5.9 5.9 0 014.89-2.3 6.11 6.11 0 014.05 1.43 7 7 0 012.48 5.4 6.61 6.61 0 01-1.36 4 6.14 6.14 0 01-5.2 2.55 7.9 7.9 0 01-3.89-1.22zm8.68-5.18c0-4-2.82-6.29-4.83-6.29a3.46 3.46 0 00-2.85 1.06 6.47 6.47 0 00-1.81 4.47c0 4.75 3.31 6.43 4.84 6.43 3.98 0 4.65-4.05 4.65-5.67zM237.32 25.36a3.29 3.29 0 01-2.15-2.42 18.86 18.86 0 01-.29-4.4v-4.29c0-.64-.13-.93-.69-.93h-.85c-.11 0-.13 0-.13-.16v-.4c0-.1 0-.14.17-.14s1.06.05 2.47.05 2.28-.05 2.48-.05.16 0 .16.11v.47c0 .09 0 .12-.15.12h-.9a.83.83 0 00-.87.74v3.55c0 .95.07 3.25.09 3.83a4.29 4.29 0 00.58 2.29 3.35 3.35 0 002.87 1.3 3.85 3.85 0 002.71-1 4.53 4.53 0 00.94-3.18V17c0-1.37 0-2.42-.09-2.87a.82.82 0 00-.81-.8H242c-.11 0-.13-.05-.13-.14v-.43c0-.09 0-.13.13-.13s1 .05 2.22.05 1.83-.05 2-.05.18.07.18.13v.39c0 .11 0 .18-.11.18h-.74c-.67 0-.72.51-.78.73s0 2.74 0 3 0 3.41-.09 4.11a4.7 4.7 0 01-1.52 3.49 4.81 4.81 0 01-3.4 1.09 6.7 6.7 0 01-2.44-.39zM250.61 20.68v3.56c0 .26.22.57.6.57h1.16c.12 0 .14.06.14.13v.43c0 .09 0 .15-.16.15s-.82-.06-2.51-.06-2.3.06-2.5.06-.14-.06-.14-.13v-.45c0-.09 0-.13.11-.13h.77c.62 0 .74-.09.8-.57 0-.18.07-3 .07-5.1v-2.08-3.34c0-.36-.21-.4-.7-.4h-1c-.09 0-.11 0-.11-.14v-.43c0-.09 0-.13.11-.13s.85.05 2.57.05c.32 0 1.39-.05 2-.05 2 0 3 .2 4 .9a3.22 3.22 0 011.38 2.62c0 2.28-1.72 3.69-4.59 3.69a17.39 17.39 0 01-2-.09zm0-1.59a6.36 6.36 0 001.66.16 3.32 3.32 0 002.55-1.25 3 3 0 00.47-1.82 3.09 3.09 0 00-3.27-3 5.8 5.8 0 00-1.41.12zM92.59 46.23a6.31 6.31 0 01-2.65-5.36 7 7 0 011.68-4.5 5.93 5.93 0 014.89-2.3 6.11 6.11 0 014 1.43 7 7 0 012.49 5.4 6.59 6.59 0 01-1.36 4 6.14 6.14 0 01-5.2 2.55 7.9 7.9 0 01-3.85-1.22zm8.67-5.18c0-4-2.81-6.29-4.82-6.29a3.44 3.44 0 00-2.85 1.07 6.43 6.43 0 00-1.81 4.46c0 4.75 3.31 6.43 4.84 6.43 3.98 0 4.64-4.06 4.64-5.67zM106.43 39.08v-3.56c0-.22-.25-.52-.74-.52h-1.09a.12.12 0 01-.13-.11v-.49a.12.12 0 01.13-.11H107.24c.31 0 6.65 0 6.94-.08 0 .31.59 2.75.72 3.22v.13l-.32.12c-.06 0-.09 0-.15-.12-.16-.29-.63-1-1.15-1.67a2.26 2.26 0 00-1.28-.79c-.45-.1-3.32-.16-3.86-.16v5.9c.25 0 2.15-.05 2.36-.09.4-.07.64-.23.8-.79 0-.18.13-.56.18-.89 0-.07 0-.12.13-.12h.36a.12.12 0 01.11.13v2.06c0 .65.05 1.52.09 1.88 0 .09 0 .13-.13.14l-.34.08c-.09 0-.11 0-.13-.13s-.14-.69-.19-.89a.84.84 0 00-.75-.7 22.87 22.87 0 00-2.45-.11V45.93c0 .49.09.58.7.58h.89c.1 0 .16 0 .16.1v.46c0 .1 0 .14-.15.14h-4.82c-.07 0-.11 0-.11-.13v-.48c0-.08.06-.09.13-.09h.81c.47 0 .61-.08.63-.4s.08-2.64.08-5.75zM122.08 45.75a7.28 7.28 0 01-1.93-5.06A6.87 6.87 0 01122 35.9a6.3 6.3 0 014.52-1.83 7.51 7.51 0 013.65 1c.23.14.32.12.36 0l.15-.53c0-.1.07-.1.23-.1s.2 0 .2.28.36 3 .45 3.51c0 .09 0 .16-.07.18l-.27.07c-.09 0-.13 0-.18-.14a7 7 0 00-1.41-2.24 4.18 4.18 0 00-3.15-1.39c-3.23 0-4.53 2.87-4.51 5.51a7.22 7.22 0 001.73 4.64 4 4 0 003.47 1.52 5.51 5.51 0 004.46-2.3c.06-.09.09-.11.15 0l.23.18c.06 0 .09.07 0 .16a6.49 6.49 0 01-5.39 3 6.32 6.32 0 01-4.54-1.67zM135.92 46.23a6.32 6.32 0 01-2.66-5.36 7 7 0 011.68-4.5 5.93 5.93 0 014.9-2.3 6.11 6.11 0 014 1.43 7 7 0 012.47 5.4 6.58 6.58 0 01-1.35 4 6.16 6.16 0 01-5.21 2.55 7.9 7.9 0 01-3.83-1.22zm8.67-5.18c0-4-2.82-6.29-4.82-6.29a3.47 3.47 0 00-2.86 1.07 6.42 6.42 0 00-1.8 4.46c0 4.75 3.3 6.43 4.84 6.43 3.97 0 4.64-4.06 4.64-5.67zM156 44.25c.25-.28 2.06-4.59 2.21-4.83s2.09-4.5 2.15-4.86c0-.2.23-.21.41-.21 2.4 0 3-.06 3.22-.06s.1.06.1.13v.41c0 .11 0 .17-.14.17h-.8c-.54 0-.59.32-.59.74s-.06 3.1-.06 4.31v1.27c0 .9.06 3.83.06 4.19 0 .69.16 1 .61 1h1.07c.11 0 .13 0 .13.12V47c0 .11 0 .16-.17.16h-5.13c-.24 0-.14 0-.14-.16v-.42c0-.09 0-.12.14-.12h1.23c.31 0 .47-.11.51-.65V40c0-1.19 0-4.41-.05-4.57-.18.24-2.74 5.93-2.83 6.11s-2.12 4.82-2.19 5-.22.44-.36.44-.2-.15-.27-.33l-2.46-6c-.34-.83-2-4.88-2.24-5.09-.07.25-.11 4.82-.11 5v4.66c.09 1 .25 1.32.83 1.32h.9c.11 0 .13 0 .13.12v.45c0 .08 0 .13-.16.13h-4.52c-.16 0-.16 0-.16-.16v-.44c0-.05 0-.1.11-.1h1c.69 0 .85-.47 1-1.09.22-1.28.27-5.91.27-6.23v-3.51c0-.51 0-.66-.74-.66h-1.1c-.11 0-.13-.06-.13-.13v-.52s0-.11.13-.11.67.06 2.2.06c.85 0 1.32-.06 1.54-.06a.41.41 0 01.47.31zM169 42.35v3.56c0 .26.22.58.6.58h1.15c.13 0 .15 0 .15.12v.44c0 .09 0 .14-.17.14h-5c-.2 0-.14 0-.14-.13v-.45c0-.09 0-.12.1-.12h.78c.62 0 .74-.09.8-.58 0-.18.07-3 .07-5.1v-2.07-3.35c0-.36-.21-.39-.7-.39h-1c-.09 0-.11 0-.11-.15v-.43c0-.09 0-.13.11-.13s.85.06 2.56.06c.33 0 1.39-.06 2-.06 2 0 3 .2 4 .9a3.21 3.21 0 011.37 2.62c0 2.28-1.71 3.69-4.59 3.69a17.62 17.62 0 01-2-.09zm0-1.59a6.5 6.5 0 001.67.16 3.26 3.26 0 002.54-1.23 2.92 2.92 0 00.47-1.82 3.09 3.09 0 00-3.27-3A5.45 5.45 0 00169 35zM178.41 42.11c-.18.46-1.17 3.2-1.26 3.58a3.92 3.92 0 00-.06.4c0 .25.22.4.62.4h.85c.12 0 .18 0 .18.12V47c0 .12-.06.16-.15.16H174.53c-.09 0-.13 0-.13-.14v-.44c0-.09.07-.12.14-.12h.64c.54 0 .79-.26 1-.84.13-.28 1.45-3.63 2-5.11.13-.36 1.59-4.24 1.76-4.73a.74.74 0 000-.62.51.51 0 01-.12-.23c0-.05 0-.13.16-.16a3.58 3.58 0 001.5-.91c.09-.09.14-.16.23-.16s.15.11.2.31c.35 1.14 1.76 5.18 2.1 6.34.41 1.41 1.59 4.77 1.84 5.29a1.36 1.36 0 001.23.82h.6c.1 0 .14 0 .14.12v.45c0 .09 0 .13-.18.13h-4.72c-.09 0-.14 0-.14-.16v-.42c0-.11 0-.12.16-.12h.45c.51 0 .67-.18.55-.69s-.89-3-1.14-3.69zm4.23-.65c-.16-.54-1.63-5.06-1.72-5.33s-.09-.25-.14-.25-.14.13-.2.27-1.81 4.86-1.93 5.31zM190.31 36.69c0-1.06-.54-1.66-1.19-1.68h-.74c-.09 0-.11-.08-.11-.13v-.48c0-.07 0-.11.11-.11h3a.62.62 0 01.52.23l3.8 4.92c.2.25 3.25 4 3.68 4.57h.08v-2.13c0-1.61 0-2.49-.06-3.4a21.31 21.31 0 00-.22-2.78 1 1 0 00-1-.7h-.58c-.07 0-.11 0-.11-.13v-.47a.1.1 0 01.11-.11c.26 0 .83.06 2 .06s1.52-.06 1.75-.06.15.06.15.13v.45a.12.12 0 01-.11.13h-.49c-.49 0-.67.3-.7 1-.08 1.21-.08 3-.08 4.17v6.76c0 .25 0 .43-.09.43a.6.6 0 01-.43-.29l-2.2-2.78c-1.27-1.57-2.59-3.23-2.7-3.34s-3.52-4.35-3.63-4.5H191v4c0 1.68.15 4.63.19 5 .07.7.18 1.05.66 1.05h.55c.12 0 .14 0 .14.16v.4c0 .1 0 .14-.14.14h-3.56c-.18 0-.09 0-.09-.13v-.47c0-.05 0-.1.1-.1h.62c.52 0 .72-.22.81-1.11 0-.34.07-2.4.07-5.61zM204.76 39.57c0-.44 0-3.69-.07-4 0-.43-.22-.61-.9-.61h-1c-.09 0-.15 0-.15-.11v-.45a.12.12 0 01.13-.11c.22 0 1.14.06 2.82.06s2.19-.06 2.44-.06c.09 0 .12.06.12.13v.45c0 .09 0 .13-.14.13h-.85c-.36 0-.63.14-.63.5 0 .18-.06 4.17-.06 4.39v1.39c0 .18.06 4.36.06 4.56 0 .56.27.65.85.65h.74c.09 0 .14 0 .14.12v.47c0 .07-.05.11-.16.11H202.9c-.2 0-.15 0-.15-.11v-.49c0-.07.06-.1.15-.1h1c.36 0 .74-.06.81-.53 0-.27.09-4.17.09-5.13zM213.41 40.22c.15 0 2.08-.08 2.3-.11.52-.09.67-.24.83-.8a4 4 0 00.14-.88.12.12 0 01.13-.13h.45a.11.11 0 01.11.14c-.05.31-.05 1.79-.05 2.06 0 .64.07 1.5.1 1.88 0 .09 0 .13-.1.15l-.4.05c-.09 0-.13 0-.15-.16s-.14-.65-.19-.85a.84.84 0 00-.78-.7c-.85-.1-2.1-.1-2.39-.1v4.21c0 .94.47 1.31 1 1.41a6.77 6.77 0 001.34.13h1.59a3.55 3.55 0 001.57-.64 17.36 17.36 0 001.55-1.88c0-.09.11-.17.22-.11l.32.11c.1.05.1.11 0 .25l-1 2.66a.38.38 0 01-.39.27h-9.54c-.11 0-.17 0-.17-.13v-.48c0-.08.06-.09.19-.09h.72c.83 0 .9-.13.9-.8v-6c0-1.5 0-3.76-.05-3.94-.08-.58-.26-.7-.92-.7h-.65c-.1 0-.15 0-.15-.13v-.49c0-.05 0-.09.13-.09.39 0 1 .06 2.22.06h6.88a.14.14 0 01.15.09l.92 2.91c0 .07 0 .13-.06.16l-.27.15s-.12 0-.14-.06a14.72 14.72 0 00-1.77-2.16 2.72 2.72 0 00-1.37-.48l-3.22-.08zM223.71 46.47c-.22-.16-.33-.22-.42-.22s-.18.13-.29.31-.2.21-.32.21-.2-.08-.17-.28c.08-.46.26-2.75.31-3.27 0-.11.06-.11.13-.11h.27c.07 0 .11 0 .11.14a3.49 3.49 0 00.65 2.1 3 3 0 002.53 1.33 2.3 2.3 0 002.49-2.27c0-1.86-1.33-2.55-2.78-3.06a6.94 6.94 0 01-2.64-1.46 3.54 3.54 0 01-.9-2.64 3.42 3.42 0 011.12-2.31 3.61 3.61 0 012.53-.87 5.08 5.08 0 012.13.46c.16.09.25.07.34 0l.24-.22a.35.35 0 01.24-.11c.09 0 .14.15.14.31 0 .63.23 2.47.25 2.87 0 .09 0 .13-.09.15l-.21.05a.08.08 0 01-.11-.05 4.44 4.44 0 00-1.12-2 2.54 2.54 0 00-2-.78 2.05 2.05 0 00-2.19 2.12 2.21 2.21 0 00.56 1.57 5.78 5.78 0 002.06 1.08 5.83 5.83 0 012.91 1.5 3.54 3.54 0 01.79 2.46 3.65 3.65 0 01-3.68 4 4.42 4.42 0 01-2.88-1.01z"/></svg>